<svg width="793" height="794" viewBox="0 0 793 794" fill="none" xmlns="http://www.w3.org/2000/svg">
<path d="M301.5 157.5L210.5 210.5C295.7 173.7 424.667 198.167 478.5 215L414.5 165C390.5 95.4 441.167 40.3333 469.5 21.5C406.3 16.7 331.167 110.167 301.5 157.5Z" fill="#717E91" stroke="#717E91"/>
<path d="M478 214C342.8 174.8 243.333 195.667 210.5 211C222.5 228.2 310.167 230.5 352.5 229.5C434.9 239.5 470.5 223.333 478 214Z" fill="#313840" stroke="#313840"/>
<path d="M317 134L303 156C348.6 150.8 395.667 160.833 413.5 166.5L409 142C384.2 128.4 337.333 131 317 134Z" fill="black" stroke="black"/>
<path d="M343.5 221.464C336.3 221.898 335.833 201.03 336.5 190.542H350.5C352.1 220.053 346.5 223.453 343.5 221.464Z" fill="#A9876B" stroke="#A9876B"/>
<path d="M315 190C302.2 194.34 301.667 205.913 303 211.157C318.2 209.421 332 209.348 337 209.529C335.8 201.718 336.5 193.255 337 190H315Z" fill="#E5BC8B" stroke="#E5BC8B"/>
<ellipse cx="324" cy="194.5" rx="6" ry="1.5" fill="black"/>
<path d="M374 193.255L351.5 191.627V209.529C375.1 210.397 383.667 213.869 385 215.497C382.6 201.175 376.667 194.701 374 193.255Z" fill="#E5BC8B" stroke="#E5BC8B"/>
<ellipse cx="362" cy="195.5" rx="6" ry="1.5" fill="black"/>
<path d="M287.5 711C275.5 625.4 292.5 380.333 302.5 268.5C324.5 249.5 514.5 460.5 517 463.5C519 465.9 541.167 629.5 552 711C446.8 744.6 331.833 725 287.5 711Z" fill="#314172"/>
<path d="M342 340C333.833 332.333 314.5 307.3 302.5 268.5M302.5 268.5C292.5 380.333 275.5 625.4 287.5 711C331.833 725 446.8 744.6 552 711C541.167 629.5 519 465.9 517 463.5C514.5 460.5 324.5 249.5 302.5 268.5Z" stroke="#314172"/>
<path d="M506 458C430 504.8 302.667 499.167 248.5 490.5C244.9 501.7 252 542.167 256 561C422.4 570.6 504 541 524 525L506 458Z" fill="#313840" stroke="#313840"/>
<path d="M252 407.5C251.6 375.5 284.167 300.833 300.5 267.5H303C307.4 298.7 331.167 328.833 342.5 340C343.3 454 421.167 601.167 460 660.5C426 690.1 322.833 679.833 275.5 671C267.9 667.8 256.667 583.667 252 542C242.4 498.8 248 434.333 252 407.5Z" fill="#717E91" stroke="#717E91"/>
<path d="M611.5 530.5C509.9 472.1 457.167 412.167 443.5 389.5L510 317.5C613.6 382.7 741.167 381 792 372C787.2 414 716 520.833 681 569L611.5 530.5Z" fill="#717E91" stroke="#717E91"/>
<path d="M541 617C536.6 573.8 517.833 494.667 509 460.5C525.4 477.7 617.5 533.667 661.5 559.5C655.5 577.9 578.667 605.5 541 617Z" fill="#313840" stroke="#313840"/>
<path d="M251 533C232.6 425.4 276.333 310.5 300.5 266.5L295 262.5C223.4 344.5 202.5 459 201 506C205 516 236 528.167 251 533Z" fill="#8598A7" stroke="#8598A7"/>
<path d="M505 309C491 275.8 455.167 262.833 439 260.5C527.8 256.1 578 221.333 592 204.5L638 283C623.2 298.6 543.167 306.833 505 309Z" fill="#717E91" stroke="#717E91"/>
<path d="M315 191C302.6 197.045 301.5 206.617 302.5 210.647C295.3 210.647 294.833 197.549 295.5 191H315Z" fill="#C4C4C4" stroke="#A9A9A9"/>
<path d="M377.086 194.035C377.056 194.031 377.028 194.027 377 194.023C377.028 194.023 377.056 194.027 377.086 194.035C380.038 194.454 391.889 195.876 397.5 196.542C398.5 198.221 399.4 202.889 395 208.128C394.052 209.257 393.397 210.032 392.967 210.534C391.554 212.617 390.047 215.596 391 217.196L385.5 214.677C383.371 207.912 378.763 194.498 377.086 194.035Z" fill="#A9A9A9"/>
<path d="M377 194.023C379.8 194.426 391.833 195.87 397.5 196.542C398.5 198.221 399.4 202.889 395 208.128C390.6 213.368 392.5 210.983 394 209.136C392.5 210.983 389.8 215.181 391 217.196L385.5 214.677C383.333 207.793 378.6 194.023 377 194.023Z" stroke="#A9A9A9"/>
<path d="M300 212.662C312.4 208.229 329.833 208.8 337 209.64C337 218.506 342 220.387 344.5 220.219C347.7 222.234 349.833 214.006 350.5 209.64C370.1 210.105 378 211.849 379.5 212.662C387.9 213.871 404.667 229.623 412 237.347C423.2 245.408 423.333 249.102 422 249.942C423.2 257.599 406.5 254.476 398 251.957C395.6 247.927 371 237.851 359 233.317C349.8 229.69 333.167 231.806 326 233.317C311.2 234.929 309.833 251.789 311 260.017C309 266.466 302.833 266.398 300 265.559C277.6 245.408 290.667 221.898 300 212.662Z" fill="#A9A9A8" stroke="#A9A9A8"/>
<path d="M352 347.17C322 327.825 307.167 285.374 303.5 266.566C312.3 266.566 312.5 256.827 311.5 251.957C310.3 233.821 331 231.302 341.5 232.31C368.7 231.504 391.167 245.072 399 251.957C415.4 257.599 421.5 254.308 422.5 251.957C430.1 258.405 442.333 261.361 447.5 262.032C498.3 270.496 514.333 322.317 516 347.17C514 362.888 525.5 379.244 531.5 385.457C526.3 391.1 486.333 391.503 467 390.999C401.4 386.566 363 359.933 352 347.17Z" fill="#BEBFBA" stroke="#BEBFBA"/>
<path d="M238.5 585.5C220.5 578.3 214.333 536.833 213.5 517C213.5 519 233.5 527.833 243.5 532C245.5 546.4 242.667 552.667 241 554C239.8 554.4 238.167 552.167 237.5 551C242.3 568.2 240.167 581.167 238.5 585.5Z" fill="#E5BB8B" stroke="#E5BB8B"/>
<path d="M593.5 186C588.7 186 590.5 198.667 592 205C597.667 215.333 609.1 236.1 609.5 236.5C610 237 607.5 234 610.5 236C612.9 237.6 621.833 235.333 626 234L603 190C595.8 184.8 593.667 185.167 593.5 186Z" fill="#E5BB8B" stroke="#E5BB8B"/>
<path d="M628 184.5C617.6 182.5 612.334 186.333 611 188.5C608.2 193.3 613.5 201.167 616.5 204.5C614.5 209.7 621.334 215.333 625 217.5V225C634.6 233 642.667 224.333 645.5 219C650.3 197.4 635.834 187 628 184.5Z" fill="#E5BB8B" stroke="#E5BB8B"/>
<path d="M787.5 535.5L550 89.5L535.5 87L526 70L544 73L552.5 51.5L536.5 31.5L563 50V84L791 531.5L787.5 535.5Z" fill="#313840" stroke="#313840"/>
<path d="M512.5 57.5L526 70L544.5 74L552 51L536.5 32.5L509.5 19L512.5 57.5Z" fill="#8257E6" stroke="#8257E6"/>
<path d="M533.5 55.5L518.5 54L513.5 25.5L533.5 55.5Z" fill="#A59ABF" stroke="#A59ABF"/>
<path d="M540 54.5C539.167 58.5 537.5 66.7 537.5 67.5L549.5 52.5L535 42.5L540 54.5Z" fill="#A59ABF" stroke="#A59ABF"/>
<path d="M454 729.5H415L417.5 774.5C423.9 784.1 452.833 790.5 466.5 792.5C467.833 792.833 470.4 792.5 470 788.5C469.6 784.5 457.833 772.5 452 767L454 729.5Z" fill="#313840" stroke="#313840"/>
<path d="M305 750L303 716L342 723.5L339.5 758.5C335.1 765.3 305.667 772.667 291.5 775.5C283.9 777.1 286 772.5 288 770C288 766.8 299.333 755.333 305 750Z" fill="#313840" stroke="#313840"/>
<ellipse cx="112" cy="74" rx="112" ry="74" fill="#C4C4C4"/>
<path d="M252.5 166.5L206 83L176 127.5L252.5 166.5Z" fill="#C4C4C4" stroke="#C4C4C4"/>
<path d="M56.582 80.5098L56.5674 72.1016H48.9355V75.1777H52.4658L52.4512 79.0449C52.3438 79.1719 52.1826 79.2939 51.9678 79.4111C51.7627 79.5186 51.5234 79.6162 51.25 79.7041C50.9766 79.792 50.6836 79.8604 50.3711 79.9092C50.0586 79.958 49.7412 79.9824 49.4189 79.9824C48.8916 79.9727 48.418 79.8896 47.998 79.7334C47.5879 79.5674 47.2266 79.3281 46.9141 79.0156C46.7285 78.8301 46.5576 78.6201 46.4014 78.3857C46.2549 78.1416 46.123 77.8779 46.0059 77.5947C45.8203 77.1064 45.6738 76.5449 45.5664 75.9102C45.4688 75.2754 45.4199 74.5723 45.4199 73.8008V70.8711C45.4199 70.2559 45.4541 69.6846 45.5225 69.1572C45.6006 68.6299 45.708 68.1514 45.8447 67.7217C46.0205 67.165 46.2402 66.6816 46.5039 66.2715C46.7773 65.8613 47.0801 65.5293 47.4121 65.2754C47.666 65.0898 47.9395 64.9482 48.2324 64.8506C48.5254 64.7529 48.8281 64.7041 49.1406 64.7041C49.7168 64.7041 50.21 64.7822 50.6201 64.9385C51.04 65.085 51.3867 65.3096 51.6602 65.6123C51.9043 65.8857 52.0947 66.2227 52.2314 66.623C52.3779 67.0234 52.4854 67.4824 52.5537 68H56.5674C56.46 66.9746 56.2305 66.0518 55.8789 65.2314C55.5371 64.4111 55.0586 63.7129 54.4434 63.1367C53.8281 62.5703 53.0713 62.1357 52.1729 61.833C51.2842 61.5303 50.2393 61.3789 49.0381 61.3789C48.2568 61.3789 47.5146 61.4863 46.8115 61.7012C46.1084 61.916 45.459 62.2334 44.8633 62.6533C44.3555 63.0244 43.8867 63.4639 43.457 63.9717C43.0371 64.4795 42.666 65.0508 42.3438 65.6855C42.002 66.3984 41.7383 67.1943 41.5527 68.0732C41.3672 68.9424 41.2744 69.8848 41.2744 70.9004V73.8008C41.2744 74.8652 41.3672 75.8516 41.5527 76.7598C41.748 77.668 42.0312 78.4834 42.4023 79.2061C42.7246 79.8604 43.1152 80.4414 43.5742 80.9492C44.043 81.457 44.5605 81.8867 45.127 82.2383C45.7031 82.5801 46.333 82.8389 47.0166 83.0146C47.71 83.2002 48.4473 83.293 49.2285 83.293C50.127 83.293 50.9668 83.21 51.748 83.0439C52.5293 82.8779 53.2373 82.6582 53.8721 82.3848C54.4971 82.1211 55.0391 81.8232 55.498 81.4912C55.957 81.1592 56.3184 80.832 56.582 80.5098ZM59.5264 74.9287V75.2363C59.5264 76.3984 59.6924 77.4727 60.0244 78.459C60.3564 79.4355 60.8447 80.2852 61.4893 81.0078C62.124 81.7305 62.9053 82.2969 63.833 82.707C64.7705 83.1074 65.835 83.3076 67.0264 83.3076C68.208 83.3076 69.2627 83.1074 70.1904 82.707C71.1182 82.2969 71.8994 81.7305 72.5342 81.0078C73.1689 80.2852 73.6523 79.4355 73.9844 78.459C74.3164 77.4727 74.4824 76.3984 74.4824 75.2363V74.9287C74.4824 73.7764 74.3164 72.7119 73.9844 71.7354C73.6523 70.749 73.1689 69.8945 72.5342 69.1719C71.8896 68.4492 71.1035 67.8828 70.1758 67.4727C69.248 67.0625 68.1885 66.8574 66.9971 66.8574C65.8057 66.8574 64.7461 67.0625 63.8184 67.4727C62.9004 67.8828 62.124 68.4492 61.4893 69.1719C60.8447 69.8945 60.3564 70.749 60.0244 71.7354C59.6924 72.7119 59.5264 73.7764 59.5264 74.9287ZM63.5986 75.2363V74.9287C63.5986 74.2842 63.6621 73.6738 63.7891 73.0977C63.916 72.5215 64.1162 72.0137 64.3896 71.5742C64.6631 71.1348 65.0146 70.7881 65.4443 70.5342C65.874 70.2803 66.3916 70.1533 66.9971 70.1533C67.6123 70.1533 68.1348 70.2803 68.5645 70.5342C68.9941 70.7881 69.3457 71.1348 69.6191 71.5742C69.8828 72.0137 70.0781 72.5215 70.2051 73.0977C70.332 73.6738 70.3955 74.2842 70.3955 74.9287V75.2363C70.3955 75.9004 70.332 76.5254 70.2051 77.1113C70.0781 77.6875 69.8828 78.1904 69.6191 78.6201C69.3457 79.0596 68.9941 79.4062 68.5645 79.6602C68.1348 79.9141 67.6221 80.041 67.0264 80.041C66.4111 80.041 65.8838 79.9141 65.4443 79.6602C65.0146 79.4062 64.6631 79.0596 64.3896 78.6201C64.1162 78.1904 63.916 77.6875 63.7891 77.1113C63.6621 76.5254 63.5986 75.9004 63.5986 75.2363ZM95.9424 83H103.721C104.893 83 105.947 82.8682 106.885 82.6045C107.822 82.3408 108.618 81.9453 109.272 81.418C109.927 80.8906 110.43 80.2363 110.781 79.4551C111.133 78.6738 111.309 77.7705 111.309 76.7451C111.309 76.208 111.235 75.6904 111.089 75.1924C110.952 74.6846 110.737 74.2158 110.444 73.7861C110.161 73.3857 109.81 73.0342 109.39 72.7314C108.979 72.4287 108.423 72.1797 107.72 71.9844V71.9697C108.081 71.833 108.408 71.667 108.701 71.4717C109.004 71.2764 109.272 71.0615 109.507 70.8271C109.937 70.3975 110.259 69.8994 110.474 69.333C110.698 68.7568 110.815 68.1465 110.825 67.502C110.825 66.5059 110.64 65.6416 110.269 64.9092C109.907 64.1768 109.39 63.5713 108.716 63.0928C108.042 62.6143 107.227 62.2578 106.27 62.0234C105.322 61.7891 104.268 61.6719 103.105 61.6719H95.9424V83ZM100.073 73.5957H103.911C104.487 73.6055 104.985 73.6836 105.405 73.8301C105.825 73.9766 106.167 74.1865 106.431 74.46C106.694 74.7236 106.885 75.0459 107.002 75.4268C107.129 75.8076 107.192 76.2373 107.192 76.7158C107.192 77.1748 107.109 77.5898 106.943 77.9609C106.787 78.332 106.553 78.6494 106.24 78.9131C105.957 79.1475 105.601 79.333 105.171 79.4697C104.751 79.6064 104.272 79.6748 103.735 79.6748H100.073V73.5957ZM100.073 70.6221V65.0264H103.12C103.784 65.0361 104.36 65.1094 104.849 65.2461C105.347 65.3828 105.742 65.6025 106.035 65.9053C106.26 66.1201 106.426 66.3887 106.533 66.7109C106.65 67.0332 106.709 67.4092 106.709 67.8389C106.709 68.249 106.641 68.6152 106.504 68.9375C106.377 69.2598 106.191 69.5332 105.947 69.7578C105.654 70.041 105.269 70.2559 104.79 70.4023C104.312 70.5391 103.76 70.6123 103.135 70.6221H100.073ZM124.038 83H128.169V82.751C127.964 82.3506 127.808 81.8721 127.7 81.3154C127.593 80.7588 127.539 80.0557 127.539 79.2061V72.4092C127.539 71.4912 127.368 70.6855 127.026 69.9922C126.685 69.2891 126.211 68.708 125.605 68.249C125 67.79 124.282 67.4434 123.452 67.209C122.632 66.9746 121.743 66.8574 120.786 66.8574C119.722 66.8574 118.774 66.9941 117.944 67.2676C117.124 67.5312 116.431 67.8926 115.864 68.3516C115.288 68.8105 114.849 69.3428 114.546 69.9482C114.253 70.5537 114.106 71.1934 114.106 71.8672H118.179C118.179 71.584 118.218 71.3252 118.296 71.0908C118.384 70.8564 118.516 70.6562 118.691 70.4902C118.887 70.3047 119.141 70.1631 119.453 70.0654C119.766 69.958 120.137 69.9043 120.566 69.9043C121.055 69.9043 121.479 69.9678 121.841 70.0947C122.212 70.2119 122.52 70.3828 122.764 70.6074C122.998 70.8223 123.174 71.0811 123.291 71.3838C123.408 71.6768 123.467 72.0088 123.467 72.3799V73.3174H121.196C120.024 73.3174 118.984 73.4248 118.076 73.6396C117.178 73.8447 116.421 74.1475 115.806 74.5479C115.122 74.9873 114.609 75.5488 114.268 76.2324C113.926 76.9062 113.755 77.6826 113.755 78.5615C113.755 79.2451 113.892 79.8799 114.165 80.4658C114.438 81.042 114.819 81.54 115.308 81.96C115.796 82.3799 116.377 82.707 117.051 82.9414C117.734 83.1758 118.481 83.293 119.292 83.293C119.79 83.293 120.254 83.2441 120.684 83.1465C121.113 83.0586 121.509 82.9316 121.87 82.7656C122.222 82.6094 122.544 82.4238 122.837 82.209C123.13 81.9941 123.389 81.7646 123.613 81.5205C123.662 81.8037 123.721 82.0723 123.789 82.3262C123.857 82.5801 123.94 82.8047 124.038 83ZM120.156 80.1436C119.775 80.1436 119.438 80.0996 119.146 80.0117C118.862 79.9141 118.623 79.7871 118.428 79.6309C118.232 79.4648 118.081 79.2646 117.974 79.0303C117.876 78.7861 117.827 78.5225 117.827 78.2393C117.827 77.8779 117.896 77.5459 118.032 77.2432C118.169 76.9307 118.379 76.6621 118.662 76.4375C118.945 76.2227 119.312 76.0566 119.761 75.9395C120.21 75.8125 120.752 75.749 121.387 75.749H123.467V78.4736C123.35 78.6787 123.188 78.8838 122.983 79.0889C122.778 79.2842 122.534 79.46 122.251 79.6162C121.968 79.7725 121.65 79.8994 121.299 79.9971C120.947 80.0947 120.566 80.1436 120.156 80.1436ZM139.17 80.041C138.516 80.041 137.974 79.9092 137.544 79.6455C137.124 79.3818 136.792 79.0303 136.548 78.5908C136.294 78.1611 136.118 77.6631 136.021 77.0967C135.923 76.5205 135.874 75.9248 135.874 75.3096V74.8701C135.874 74.2646 135.923 73.6787 136.021 73.1123C136.128 72.5459 136.309 72.043 136.562 71.6035C136.807 71.1641 137.139 70.8125 137.559 70.5488C137.979 70.2852 138.511 70.1533 139.155 70.1533C139.595 70.1533 140 70.2314 140.371 70.3877C140.742 70.5342 141.06 70.7344 141.323 70.9883C141.587 71.2422 141.787 71.5449 141.924 71.8965C142.061 72.248 142.119 72.6191 142.1 73.0098H145.938C145.957 72.0723 145.801 71.2275 145.469 70.4756C145.137 69.7139 144.673 69.0645 144.077 68.5273C143.472 68 142.754 67.5898 141.924 67.2969C141.094 67.0039 140.19 66.8574 139.214 66.8574C137.993 66.8574 136.919 67.0674 135.991 67.4873C135.073 67.9072 134.302 68.4785 133.677 69.2012C133.052 69.9238 132.583 70.7734 132.271 71.75C131.958 72.7168 131.802 73.7568 131.802 74.8701V75.3096C131.802 76.4229 131.958 77.4678 132.271 78.4443C132.593 79.4111 133.066 80.2559 133.691 80.9785C134.307 81.7012 135.078 82.2725 136.006 82.6924C136.934 83.1025 138.013 83.3076 139.243 83.3076C140.151 83.3076 141.011 83.166 141.821 82.8828C142.642 82.5898 143.359 82.1895 143.975 81.6816C144.59 81.1738 145.073 80.5684 145.425 79.8652C145.786 79.1621 145.957 78.4004 145.938 77.5801H142.1C142.119 77.9512 142.051 78.2881 141.895 78.5908C141.748 78.8936 141.538 79.1523 141.265 79.3672C140.991 79.582 140.674 79.748 140.312 79.8652C139.951 79.9824 139.57 80.041 139.17 80.041ZM156.133 76.4521L160.63 83H165.625L158.813 73.7568L164.79 67.1504H159.897L155.518 71.9551L154.287 73.3613V60.5H150.215V83H154.287V78.166L156.133 76.4521ZM176.978 75.5439L177.212 61.6719H173.037L173.271 75.5439H176.978ZM172.744 81.0078C172.744 81.6328 172.954 82.1602 173.374 82.5898C173.794 83.0098 174.375 83.2197 175.117 83.2197C175.84 83.2197 176.416 83.0098 176.846 82.5898C177.275 82.1602 177.49 81.6328 177.49 81.0078C177.49 80.3633 177.275 79.8262 176.846 79.3965C176.416 78.9668 175.84 78.752 175.117 78.752C174.375 78.752 173.794 78.9668 173.374 79.3965C172.954 79.8262 172.744 80.3633 172.744 81.0078Z" fill="black"/>
</svg>
